<?xml version="1.0" encoding="UTF-8" standalone="no"?>
<svg
   xmlns:dc="http://purl.org/dc/elements/1.1/"
   xmlns:cc="http://creativecommons.org/ns#"
   xmlns:rdf="http://www.w3.org/1999/02/22-rdf-syntax-ns#"
   xmlns:svg="http://www.w3.org/2000/svg"
   xmlns="http://www.w3.org/2000/svg"
   xmlns:sodipodi="http://sodipodi.sourceforge.net/DTD/sodipodi-0.dtd"
   xmlns:inkscape="http://www.inkscape.org/namespaces/inkscape"
   clip-rule="evenodd"
   fill-rule="evenodd"
   stroke-linejoin="round"
   stroke-miterlimit="2"
   viewBox="0 0 64 64"
   version="1.1"
   id="svg10"
   sodipodi:docname="icon.svg"
   inkscape:version="0.92.5 (2060ec1f9f, 2020-04-08)">
  <metadata
     id="metadata16">
    <rdf:RDF>
      <cc:Work
         rdf:about="">
        <dc:format>image/svg+xml</dc:format>
        <dc:type
           rdf:resource="http://purl.org/dc/dcmitype/StillImage" />
        <dc:title></dc:title>
      </cc:Work>
    </rdf:RDF>
  </metadata>
  <defs
     id="defs14" />
  <sodipodi:namedview
     pagecolor="#ffffff"
     bordercolor="#666666"
     borderopacity="1"
     objecttolerance="10"
     gridtolerance="10"
     guidetolerance="10"
     inkscape:pageopacity="0"
     inkscape:pageshadow="2"
     inkscape:window-width="1920"
     inkscape:window-height="1025"
     id="namedview12"
     showgrid="false"
     inkscape:zoom="3.6875"
     inkscape:cx="7.0508475"
     inkscape:cy="32"
     inkscape:window-x="0"
     inkscape:window-y="0"
     inkscape:window-maximized="1"
     inkscape:current-layer="svg10" />
  <path
     d="m0 0h64v64h-64z"
     fill="none"
     id="path2" />
  <path
     style="fill:#676e78;fill-rule:nonzero;stroke-width:2"
     inkscape:connector-curvature="0"
     id="path4"
     d="m 9.803,56 h 4 v 4 c 0,2.208 1.792,4 4,4 h 40 c 2.208,0 4,-1.792 4,-4 V 12 c 0,-2.208 -1.792,-4 -4,-4 h -4 V 4 c 0,-2.208 -1.792,-4 -4,-4 h -40 c -2.208,0 -4,1.792 -4,4 v 48 c 0,2.208 1.792,4 4,4 z m 41,-3 h -42 V 3 h 42 z m 8,-42 v 50 h -42 v -5 h 33 c 2.208,0 4,-1.792 4,-4 V 11 Z" />
  <g
     id="g839"
     transform="translate(-0.81355932,-1.0847458)">
    <path
       style="fill:#88c200;fill-opacity:1;fill-rule:nonzero;stroke-width:1.21477354"
       inkscape:connector-curvature="0"
       d="m 30.195087,45.943555 c 2.806556,2.888897 7.354039,2.888897 10.160595,0 l 1.903765,-1.962084 c 2.806556,-2.888898 2.806556,-7.569799 0,-10.458696 L 33.791885,24.811713 C 31.916857,22.881674 29.268349,22.272836 26.876071,22.923577 L 39.7187,36.142995 c 1.400883,1.441984 1.400883,3.786132 0,5.228115 l -1.90616,1.962084 c -1.400883,1.441984 -3.678216,1.441984 -5.0791,0 L 19.893207,30.111312 c -0.632194,2.462465 -0.04071,5.188677 1.834319,7.118717 z"
       id="path4-2" />
    <path
       style="fill:#167bba;fill-rule:nonzero;stroke-width:1.21477354"
       inkscape:connector-curvature="0"
       d="m 22.388455,13.88961 c 1.400884,-1.441983 3.678217,-1.441983 5.079101,0 l 12.842628,13.219418 c 0.632193,-2.462465 0.04071,-5.188677 -1.834319,-7.118717 l -8.467562,-8.713526 c -2.806556,-2.8888975 -7.354039,-2.8888975 -10.160595,0 l -1.903765,1.959619 c -2.806556,2.888897 -2.806556,7.569799 0,10.458696 l 8.467562,8.715991 c 1.875029,1.93004 4.523536,2.538878 6.915814,1.888136 L 20.484691,21.07981 c -1.400884,-1.441984 -1.400884,-3.786132 0,-5.228116 z"
       id="path6" />
  </g>
</svg>
