<?xml version="1.0" encoding="UTF-8" standalone="no"?>
<svg
   xmlns:dc="http://purl.org/dc/elements/1.1/"
   xmlns:cc="http://creativecommons.org/ns#"
   xmlns:rdf="http://www.w3.org/1999/02/22-rdf-syntax-ns#"
   xmlns:svg="http://www.w3.org/2000/svg"
   xmlns="http://www.w3.org/2000/svg"
   xmlns:sodipodi="http://sodipodi.sourceforge.net/DTD/sodipodi-0.dtd"
   xmlns:inkscape="http://www.inkscape.org/namespaces/inkscape"
   clip-rule="evenodd"
   fill-rule="evenodd"
   stroke-linejoin="round"
   stroke-miterlimit="2"
   viewBox="0 0 64 64"
   version="1.1"
   id="svg10"
   sodipodi:docname="icon-dark.svg"
   inkscape:version="0.92.5 (2060ec1f9f, 2020-04-08)">
  <metadata
     id="metadata16">
    <rdf:RDF>
      <cc:Work
         rdf:about="">
        <dc:format>image/svg+xml</dc:format>
        <dc:type
           rdf:resource="http://purl.org/dc/dcmitype/StillImage" />
        <dc:title></dc:title>
      </cc:Work>
    </rdf:RDF>
  </metadata>
  <defs
     id="defs14" />
  <sodipodi:namedview
     pagecolor="#ffffff"
     bordercolor="#666666"
     borderopacity="1"
     objecttolerance="10"
     gridtolerance="10"
     guidetolerance="10"
     inkscape:pageopacity="0"
     inkscape:pageshadow="2"
     inkscape:window-width="1920"
     inkscape:window-height="1025"
     id="namedview12"
     showgrid="false"
     inkscape:zoom="7.375"
     inkscape:cx="-3.4035758"
     inkscape:cy="34.357658"
     inkscape:window-x="0"
     inkscape:window-y="0"
     inkscape:window-maximized="1"
     inkscape:current-layer="svg10" />
  <path
     d="m0 0h64v64h-64z"
     fill="none"
     id="path2" />
  <path
     id="path4-2"
     d="m 29.381528,44.858809 c 2.806556,2.888897 7.354039,2.888897 10.160595,0 l 1.903765,-1.962084 c 2.806556,-2.888898 2.806556,-7.569799 0,-10.458696 L 32.978326,23.726967 C 31.103298,21.796928 28.45479,21.18809 26.062512,21.838831 l 12.842629,13.219418 c 1.400883,1.441984 1.400883,3.786132 0,5.228115 l -1.90616,1.962084 c -1.400883,1.441984 -3.678216,1.441984 -5.0791,0 L 19.079648,29.026566 c -0.632194,2.462465 -0.04071,5.188677 1.834319,7.118717 z"
     inkscape:connector-curvature="0"
     style="fill:#88c200;fill-opacity:1;fill-rule:nonzero;stroke-width:1.21477354" />
  <path
     id="path6"
     d="m 21.574896,12.804864 c 1.400884,-1.441983 3.678217,-1.441983 5.079101,0 l 12.842628,13.219418 c 0.632193,-2.462465 0.04071,-5.188677 -1.834319,-7.118717 l -8.467562,-8.713526 c -2.806556,-2.8888973 -7.354039,-2.8888973 -10.160595,0 l -1.903765,1.959619 c -2.806556,2.888897 -2.806556,7.569799 0,10.458696 l 8.467562,8.715991 c 1.875029,1.93004 4.523536,2.538878 6.915814,1.888136 L 19.671132,19.995064 c -1.400884,-1.441984 -1.400884,-3.786132 0,-5.228116 z"
     inkscape:connector-curvature="0"
     style="fill:#99d8ff;fill-rule:nonzero;stroke-width:1.21477354;fill-opacity:1" />
  <path
     id="path4"
     d="m 9.0847456,56.406779 h 4.0000004 v 4 c 0,2.208 1.792,4 4,4 h 40 c 2.208,0 4,-1.792 4,-4 v -48 c 0,-2.208 -1.792,-3.9999998 -4,-3.9999998 h -4 v -4 c 0,-2.208 -1.792,-4.00000004 -4,-4.00000004 H 9.0847456 c -2.208,0 -4,1.79200004 -4,4.00000004 V 52.406779 c 0,2.208 1.792,4 4,4 z m 41.0000004,-3 H 8.0847456 V 3.4067792 H 50.084746 Z m 8,-42 v 50 h -42 v -5 h 33 c 2.208,0 4,-1.792 4,-4 v -41 z"
     inkscape:connector-curvature="0"
     style="fill:#c2c2cf;fill-rule:nonzero;stroke-width:2;fill-opacity:0.94117647" />
</svg>
